<?xml version="1.0" encoding="us-ascii" standalone="no"?><svg xmlns="http://www.w3.org/2000/svg" xmlns:xlink="http://www.w3.org/1999/xlink" contentStyleType="text/css" height="291px" preserveAspectRatio="none" style="width:263px;height:291px;background:#FFFFFF;" version="1.1" viewBox="0 0 263 291" width="263px" zoomAndPan="magnify"><defs/><g><ellipse cx="131.5" cy="20" fill="#222222" rx="10" ry="10" style="stroke:#222222;stroke-width:1.0;"/><polygon fill="#F1F1F1" points="27.5,50,225.5,50,235.5,86.3441,37.5,86.3441" style="stroke:#181818;stroke-width:0.5;"/><text fill="#000000" font-family="sans-serif" font-size="12" lengthAdjust="spacing" textLength="188" x="37.5" y="72.8281">Two images from stereo cameras</text><line style="stroke:#181818;stroke-width:1.5;" x1="131.5" x2="131.5" y1="106.3441" y2="106.3441"/><rect fill="#F1F1F1" height="36.3441" rx="12.5" ry="12.5" style="stroke:#181818;stroke-width:0.5;" width="184" x="39.5" y="126.3441"/><text fill="#000000" font-family="sans-serif" font-size="12" lengthAdjust="spacing" textLength="164" x="49.5" y="149.1722">Generate point cloud through</text><line style="stroke:#181818;stroke-width:1.5;" x1="131.5" x2="131.5" y1="182.6882" y2="182.6882"/><rect fill="#F1F1F1" height="36.3441" rx="12.5" ry="12.5" style="stroke:#181818;stroke-width:0.5;" width="241" x="11" y="202.6882"/><text fill="#000000" font-family="sans-serif" font-size="12" lengthAdjust="spacing" textLength="221" x="21" y="225.5163">Detect hand guesture from one camera</text><line style="stroke:#181818;stroke-width:1.5;" x1="131.5" x2="131.5" y1="259.0323" y2="259.0323"/><line style="stroke:#181818;stroke-width:1.5;" x1="131.5" x2="131.5" y1="279.0323" y2="279.0323"/><line style="stroke:#181818;stroke-width:1.0;" x1="131.5" x2="131.5" y1="30" y2="50"/><polygon fill="#181818" points="127.5,40,131.5,50,135.5,40,131.5,44" style="stroke:#181818;stroke-width:1.0;"/><line style="stroke:#181818;stroke-width:1.0;" x1="131.5" x2="131.5" y1="184.1882" y2="202.6882"/><polygon fill="#181818" points="127.5,192.6882,131.5,202.6882,135.5,192.6882,131.5,196.6882" style="stroke:#181818;stroke-width:1.0;"/><line style="stroke:#181818;stroke-width:1.0;" x1="131.5" x2="131.5" y1="239.0323" y2="259.0323"/><polygon fill="#181818" points="127.5,249.0323,131.5,259.0323,135.5,249.0323,131.5,253.0323" style="stroke:#181818;stroke-width:1.0;"/><line style="stroke:#181818;stroke-width:1.0;" x1="131.5" x2="131.5" y1="162.6882" y2="182.6882"/><polygon fill="#181818" points="127.5,172.6882,131.5,182.6882,135.5,172.6882,131.5,176.6882" style="stroke:#181818;stroke-width:1.0;"/><line style="stroke:#181818;stroke-width:1.0;" x1="131.5" x2="131.5" y1="107.8441" y2="126.3441"/><polygon fill="#181818" points="127.5,116.3441,131.5,126.3441,135.5,116.3441,131.5,120.3441" style="stroke:#181818;stroke-width:1.0;"/><line style="stroke:#181818;stroke-width:1.0;" x1="131.5" x2="131.5" y1="260.5323" y2="279.0323"/><polygon fill="#181818" points="127.5,269.0323,131.5,279.0323,135.5,269.0323,131.5,273.0323" style="stroke:#181818;stroke-width:1.0;"/><line style="stroke:#181818;stroke-width:1.0;" x1="131.5" x2="131.5" y1="86.3441" y2="106.3441"/><polygon fill="#181818" points="127.5,96.3441,131.5,106.3441,135.5,96.3441,131.5,100.3441" style="stroke:#181818;stroke-width:1.0;"/><!--SRC=[JOt13GCX30J_LE4wZjEz8gM1D6311f00dsoZj9zJaaVckxCQSrOFs-Cbr0ON63rL1fb38PHuGDaYxNiNpiSHxEpD0rriTynhTD0fRJgbBYkJLvLLQlmNRt0afyepKramNuflHYP-ZHWmy-Vp1W00]--></g></svg>